<?xml version="1.0" encoding="utf-8" standalone="no"?>
<!DOCTYPE svg PUBLIC "-//W3C//DTD SVG 1.1//EN"
  "http://www.w3.org/Graphics/SVG/1.1/DTD/svg11.dtd">
<svg xmlns:xlink="http://www.w3.org/1999/xlink" width="864pt" height="360pt" viewBox="0 0 864 360" xmlns="http://www.w3.org/2000/svg" version="1.1">
 <metadata>
  <rdf:RDF xmlns:dc="http://purl.org/dc/elements/1.1/" xmlns:cc="http://creativecommons.org/ns#" xmlns:rdf="http://www.w3.org/1999/02/22-rdf-syntax-ns#">
   <cc:Work>
    <dc:type rdf:resource="http://purl.org/dc/dcmitype/StillImage"/>
    <dc:date>2024-05-06T20:05:49.150681</dc:date>
    <dc:format>image/svg+xml</dc:format>
    <dc:creator>
     <cc:Agent>
      <dc:title>Matplotlib v3.8.4, https://matplotlib.org/</dc:title>
     </cc:Agent>
    </dc:creator>
   </cc:Work>
  </rdf:RDF>
 </metadata>
 <defs>
  <style type="text/css">*{stroke-linejoin: round; stroke-linecap: butt}</style>
 </defs>
 <g id="figure_1">
  <g id="patch_1">
   <path d="M 0 360 
L 864 360 
L 864 0 
L 0 0 
L 0 360 
z
" style="fill: none; opacity: 0"/>
  </g>
  <g id="axes_1">
   <g id="patch_2">
    <path d="M 108 320.4 
L 777.6 320.4 
L 777.6 43.2 
L 108 43.2 
L 108 320.4 
z
" style="fill: none; opacity: 0"/>
   </g>
   <g id="matplotlib.axis_1">
    <g id="xtick_1">
     <g id="line2d_1">
      <path d="M 161.779887 320.4 
L 161.779887 43.2 
" clip-path="url(#pc4ed94e362)" style="fill: none; stroke-dasharray: 5.12,1.28,0.8,1.28; stroke-dashoffset: 0; stroke: #b0b0b0; stroke-width: 0.8"/>
     </g>
     <g id="line2d_2">
      <defs>
       <path id="m2ec268e005" d="M 0 0 
L 0 3.5 
" style="stroke: #a9a9a9; stroke-width: 0.8"/>
      </defs>
      <g>
       <use xlink:href="#m2ec268e005" x="161.779887" y="320.4" style="fill: #a9a9a9; stroke: #a9a9a9; stroke-width: 0.8"/>
      </g>
     </g>
     <g id="text_1">
      <!-- 2021-09 -->
      <g style="fill: #a9a9a9" transform="translate(140.888481 334.998438) scale(0.1 -0.1)">
       <defs>
        <path id="DejaVuSans-32" d="M 1228 531 
L 3431 531 
L 3431 0 
L 469 0 
L 469 531 
Q 828 903 1448 1529 
Q 2069 2156 2228 2338 
Q 2531 2678 2651 2914 
Q 2772 3150 2772 3378 
Q 2772 3750 2511 3984 
Q 2250 4219 1831 4219 
Q 1534 4219 1204 4116 
Q 875 4013 500 3803 
L 500 4441 
Q 881 4594 1212 4672 
Q 1544 4750 1819 4750 
Q 2544 4750 2975 4387 
Q 3406 4025 3406 3419 
Q 3406 3131 3298 2873 
Q 3191 2616 2906 2266 
Q 2828 2175 2409 1742 
Q 1991 1309 1228 531 
z
" transform="scale(0.015625)"/>
        <path id="DejaVuSans-30" d="M 2034 4250 
Q 1547 4250 1301 3770 
Q 1056 3291 1056 2328 
Q 1056 1369 1301 889 
Q 1547 409 2034 409 
Q 2525 409 2770 889 
Q 3016 1369 3016 2328 
Q 3016 3291 2770 3770 
Q 2525 4250 2034 4250 
z
M 2034 4750 
Q 2819 4750 3233 4129 
Q 3647 3509 3647 2328 
Q 3647 1150 3233 529 
Q 2819 -91 2034 -91 
Q 1250 -91 836 529 
Q 422 1150 422 2328 
Q 422 3509 836 4129 
Q 1250 4750 2034 4750 
z
" transform="scale(0.015625)"/>
        <path id="DejaVuSans-31" d="M 794 531 
L 1825 531 
L 1825 4091 
L 703 3866 
L 703 4441 
L 1819 4666 
L 2450 4666 
L 2450 531 
L 3481 531 
L 3481 0 
L 794 0 
L 794 531 
z
" transform="scale(0.015625)"/>
        <path id="DejaVuSans-2d" d="M 313 2009 
L 1997 2009 
L 1997 1497 
L 313 1497 
L 313 2009 
z
" transform="scale(0.015625)"/>
        <path id="DejaVuSans-39" d="M 703 97 
L 703 672 
Q 941 559 1184 500 
Q 1428 441 1663 441 
Q 2288 441 2617 861 
Q 2947 1281 2994 2138 
Q 2813 1869 2534 1725 
Q 2256 1581 1919 1581 
Q 1219 1581 811 2004 
Q 403 2428 403 3163 
Q 403 3881 828 4315 
Q 1253 4750 1959 4750 
Q 2769 4750 3195 4129 
Q 3622 3509 3622 2328 
Q 3622 1225 3098 567 
Q 2575 -91 1691 -91 
Q 1453 -91 1209 -44 
Q 966 3 703 97 
z
M 1959 2075 
Q 2384 2075 2632 2365 
Q 2881 2656 2881 3163 
Q 2881 3666 2632 3958 
Q 2384 4250 1959 4250 
Q 1534 4250 1286 3958 
Q 1038 3666 1038 3163 
Q 1038 2656 1286 2365 
Q 1534 2075 1959 2075 
z
" transform="scale(0.015625)"/>
       </defs>
       <use xlink:href="#DejaVuSans-32"/>
       <use xlink:href="#DejaVuSans-30" x="63.623047"/>
       <use xlink:href="#DejaVuSans-32" x="127.246094"/>
       <use xlink:href="#DejaVuSans-31" x="190.869141"/>
       <use xlink:href="#DejaVuSans-2d" x="254.492188"/>
       <use xlink:href="#DejaVuSans-30" x="290.576172"/>
       <use xlink:href="#DejaVuSans-39" x="354.199219"/>
      </g>
     </g>
    </g>
    <g id="xtick_2">
     <g id="line2d_3">
      <path d="M 234.803218 320.4 
L 234.803218 43.2 
" clip-path="url(#pc4ed94e362)" style="fill: none; stroke-dasharray: 5.12,1.28,0.8,1.28; stroke-dashoffset: 0; stroke: #b0b0b0; stroke-width: 0.8"/>
     </g>
     <g id="line2d_4">
      <g>
       <use xlink:href="#m2ec268e005" x="234.803218" y="320.4" style="fill: #a9a9a9; stroke: #a9a9a9; stroke-width: 0.8"/>
      </g>
     </g>
     <g id="text_2">
      <!-- 2022-01 -->
      <g style="fill: #a9a9a9" transform="translate(213.911812 334.998438) scale(0.1 -0.1)">
       <use xlink:href="#DejaVuSans-32"/>
       <use xlink:href="#DejaVuSans-30" x="63.623047"/>
       <use xlink:href="#DejaVuSans-32" x="127.246094"/>
       <use xlink:href="#DejaVuSans-32" x="190.869141"/>
       <use xlink:href="#DejaVuSans-2d" x="254.492188"/>
       <use xlink:href="#DejaVuSans-30" x="290.576172"/>
       <use xlink:href="#DejaVuSans-31" x="354.199219"/>
      </g>
     </g>
    </g>
    <g id="xtick_3">
     <g id="line2d_5">
      <path d="M 306.629445 320.4 
L 306.629445 43.2 
" clip-path="url(#pc4ed94e362)" style="fill: none; stroke-dasharray: 5.12,1.28,0.8,1.28; stroke-dashoffset: 0; stroke: #b0b0b0; stroke-width: 0.8"/>
     </g>
     <g id="line2d_6">
      <g>
       <use xlink:href="#m2ec268e005" x="306.629445" y="320.4" style="fill: #a9a9a9; stroke: #a9a9a9; stroke-width: 0.8"/>
      </g>
     </g>
     <g id="text_3">
      <!-- 2022-05 -->
      <g style="fill: #a9a9a9" transform="translate(285.738039 334.998438) scale(0.1 -0.1)">
       <defs>
        <path id="DejaVuSans-35" d="M 691 4666 
L 3169 4666 
L 3169 4134 
L 1269 4134 
L 1269 2991 
Q 1406 3038 1543 3061 
Q 1681 3084 1819 3084 
Q 2600 3084 3056 2656 
Q 3513 2228 3513 1497 
Q 3513 744 3044 326 
Q 2575 -91 1722 -91 
Q 1428 -91 1123 -41 
Q 819 9 494 109 
L 494 744 
Q 775 591 1075 516 
Q 1375 441 1709 441 
Q 2250 441 2565 725 
Q 2881 1009 2881 1497 
Q 2881 1984 2565 2268 
Q 2250 2553 1709 2553 
Q 1456 2553 1204 2497 
Q 953 2441 691 2322 
L 691 4666 
z
" transform="scale(0.015625)"/>
       </defs>
       <use xlink:href="#DejaVuSans-32"/>
       <use xlink:href="#DejaVuSans-30" x="63.623047"/>
       <use xlink:href="#DejaVuSans-32" x="127.246094"/>
       <use xlink:href="#DejaVuSans-32" x="190.869141"/>
       <use xlink:href="#DejaVuSans-2d" x="254.492188"/>
       <use xlink:href="#DejaVuSans-30" x="290.576172"/>
       <use xlink:href="#DejaVuSans-35" x="354.199219"/>
      </g>
     </g>
    </g>
    <g id="xtick_4">
     <g id="line2d_7">
      <path d="M 380.251327 320.4 
L 380.251327 43.2 
" clip-path="url(#pc4ed94e362)" style="fill: none; stroke-dasharray: 5.12,1.28,0.8,1.28; stroke-dashoffset: 0; stroke: #b0b0b0; stroke-width: 0.8"/>
     </g>
     <g id="line2d_8">
      <g>
       <use xlink:href="#m2ec268e005" x="380.251327" y="320.4" style="fill: #a9a9a9; stroke: #a9a9a9; stroke-width: 0.8"/>
      </g>
     </g>
     <g id="text_4">
      <!-- 2022-09 -->
      <g style="fill: #a9a9a9" transform="translate(359.359921 334.998438) scale(0.1 -0.1)">
       <use xlink:href="#DejaVuSans-32"/>
       <use xlink:href="#DejaVuSans-30" x="63.623047"/>
       <use xlink:href="#DejaVuSans-32" x="127.246094"/>
       <use xlink:href="#DejaVuSans-32" x="190.869141"/>
       <use xlink:href="#DejaVuSans-2d" x="254.492188"/>
       <use xlink:href="#DejaVuSans-30" x="290.576172"/>
       <use xlink:href="#DejaVuSans-39" x="354.199219"/>
      </g>
     </g>
    </g>
    <g id="xtick_5">
     <g id="line2d_9">
      <path d="M 453.274658 320.4 
L 453.274658 43.2 
" clip-path="url(#pc4ed94e362)" style="fill: none; stroke-dasharray: 5.12,1.28,0.8,1.28; stroke-dashoffset: 0; stroke: #b0b0b0; stroke-width: 0.8"/>
     </g>
     <g id="line2d_10">
      <g>
       <use xlink:href="#m2ec268e005" x="453.274658" y="320.4" style="fill: #a9a9a9; stroke: #a9a9a9; stroke-width: 0.8"/>
      </g>
     </g>
     <g id="text_5">
      <!-- 2023-01 -->
      <g style="fill: #a9a9a9" transform="translate(432.383252 334.998438) scale(0.1 -0.1)">
       <defs>
        <path id="DejaVuSans-33" d="M 2597 2516 
Q 3050 2419 3304 2112 
Q 3559 1806 3559 1356 
Q 3559 666 3084 287 
Q 2609 -91 1734 -91 
Q 1441 -91 1130 -33 
Q 819 25 488 141 
L 488 750 
Q 750 597 1062 519 
Q 1375 441 1716 441 
Q 2309 441 2620 675 
Q 2931 909 2931 1356 
Q 2931 1769 2642 2001 
Q 2353 2234 1838 2234 
L 1294 2234 
L 1294 2753 
L 1863 2753 
Q 2328 2753 2575 2939 
Q 2822 3125 2822 3475 
Q 2822 3834 2567 4026 
Q 2313 4219 1838 4219 
Q 1578 4219 1281 4162 
Q 984 4106 628 3988 
L 628 4550 
Q 988 4650 1302 4700 
Q 1616 4750 1894 4750 
Q 2613 4750 3031 4423 
Q 3450 4097 3450 3541 
Q 3450 3153 3228 2886 
Q 3006 2619 2597 2516 
z
" transform="scale(0.015625)"/>
       </defs>
       <use xlink:href="#DejaVuSans-32"/>
       <use xlink:href="#DejaVuSans-30" x="63.623047"/>
       <use xlink:href="#DejaVuSans-32" x="127.246094"/>
       <use xlink:href="#DejaVuSans-33" x="190.869141"/>
       <use xlink:href="#DejaVuSans-2d" x="254.492188"/>
       <use xlink:href="#DejaVuSans-30" x="290.576172"/>
       <use xlink:href="#DejaVuSans-31" x="354.199219"/>
      </g>
     </g>
    </g>
    <g id="xtick_6">
     <g id="line2d_11">
      <path d="M 525.100885 320.4 
L 525.100885 43.2 
" clip-path="url(#pc4ed94e362)" style="fill: none; stroke-dasharray: 5.12,1.28,0.8,1.28; stroke-dashoffset: 0; stroke: #b0b0b0; stroke-width: 0.8"/>
     </g>
     <g id="line2d_12">
      <g>
       <use xlink:href="#m2ec268e005" x="525.100885" y="320.4" style="fill: #a9a9a9; stroke: #a9a9a9; stroke-width: 0.8"/>
      </g>
     </g>
     <g id="text_6">
      <!-- 2023-05 -->
      <g style="fill: #a9a9a9" transform="translate(504.209479 334.998438) scale(0.1 -0.1)">
       <use xlink:href="#DejaVuSans-32"/>
       <use xlink:href="#DejaVuSans-30" x="63.623047"/>
       <use xlink:href="#DejaVuSans-32" x="127.246094"/>
       <use xlink:href="#DejaVuSans-33" x="190.869141"/>
       <use xlink:href="#DejaVuSans-2d" x="254.492188"/>
       <use xlink:href="#DejaVuSans-30" x="290.576172"/>
       <use xlink:href="#DejaVuSans-35" x="354.199219"/>
      </g>
     </g>
    </g>
    <g id="xtick_7">
     <g id="line2d_13">
      <path d="M 598.722767 320.4 
L 598.722767 43.2 
" clip-path="url(#pc4ed94e362)" style="fill: none; stroke-dasharray: 5.12,1.28,0.8,1.28; stroke-dashoffset: 0; stroke: #b0b0b0; stroke-width: 0.8"/>
     </g>
     <g id="line2d_14">
      <g>
       <use xlink:href="#m2ec268e005" x="598.722767" y="320.4" style="fill: #a9a9a9; stroke: #a9a9a9; stroke-width: 0.8"/>
      </g>
     </g>
     <g id="text_7">
      <!-- 2023-09 -->
      <g style="fill: #a9a9a9" transform="translate(577.831361 334.998438) scale(0.1 -0.1)">
       <use xlink:href="#DejaVuSans-32"/>
       <use xlink:href="#DejaVuSans-30" x="63.623047"/>
       <use xlink:href="#DejaVuSans-32" x="127.246094"/>
       <use xlink:href="#DejaVuSans-33" x="190.869141"/>
       <use xlink:href="#DejaVuSans-2d" x="254.492188"/>
       <use xlink:href="#DejaVuSans-30" x="290.576172"/>
       <use xlink:href="#DejaVuSans-39" x="354.199219"/>
      </g>
     </g>
    </g>
    <g id="xtick_8">
     <g id="line2d_15">
      <path d="M 671.746098 320.4 
L 671.746098 43.2 
" clip-path="url(#pc4ed94e362)" style="fill: none; stroke-dasharray: 5.12,1.28,0.8,1.28; stroke-dashoffset: 0; stroke: #b0b0b0; stroke-width: 0.8"/>
     </g>
     <g id="line2d_16">
      <g>
       <use xlink:href="#m2ec268e005" x="671.746098" y="320.4" style="fill: #a9a9a9; stroke: #a9a9a9; stroke-width: 0.8"/>
      </g>
     </g>
     <g id="text_8">
      <!-- 2024-01 -->
      <g style="fill: #a9a9a9" transform="translate(650.854692 334.998438) scale(0.1 -0.1)">
       <defs>
        <path id="DejaVuSans-34" d="M 2419 4116 
L 825 1625 
L 2419 1625 
L 2419 4116 
z
M 2253 4666 
L 3047 4666 
L 3047 1625 
L 3713 1625 
L 3713 1100 
L 3047 1100 
L 3047 0 
L 2419 0 
L 2419 1100 
L 313 1100 
L 313 1709 
L 2253 4666 
z
" transform="scale(0.015625)"/>
       </defs>
       <use xlink:href="#DejaVuSans-32"/>
       <use xlink:href="#DejaVuSans-30" x="63.623047"/>
       <use xlink:href="#DejaVuSans-32" x="127.246094"/>
       <use xlink:href="#DejaVuSans-34" x="190.869141"/>
       <use xlink:href="#DejaVuSans-2d" x="254.492188"/>
       <use xlink:href="#DejaVuSans-30" x="290.576172"/>
       <use xlink:href="#DejaVuSans-31" x="354.199219"/>
      </g>
     </g>
    </g>
    <g id="xtick_9">
     <g id="line2d_17">
      <path d="M 744.170877 320.4 
L 744.170877 43.2 
" clip-path="url(#pc4ed94e362)" style="fill: none; stroke-dasharray: 5.12,1.28,0.8,1.28; stroke-dashoffset: 0; stroke: #b0b0b0; stroke-width: 0.8"/>
     </g>
     <g id="line2d_18">
      <g>
       <use xlink:href="#m2ec268e005" x="744.170877" y="320.4" style="fill: #a9a9a9; stroke: #a9a9a9; stroke-width: 0.8"/>
      </g>
     </g>
     <g id="text_9">
      <!-- 2024-05 -->
      <g style="fill: #a9a9a9" transform="translate(723.279471 334.998438) scale(0.1 -0.1)">
       <use xlink:href="#DejaVuSans-32"/>
       <use xlink:href="#DejaVuSans-30" x="63.623047"/>
       <use xlink:href="#DejaVuSans-32" x="127.246094"/>
       <use xlink:href="#DejaVuSans-34" x="190.869141"/>
       <use xlink:href="#DejaVuSans-2d" x="254.492188"/>
       <use xlink:href="#DejaVuSans-30" x="290.576172"/>
       <use xlink:href="#DejaVuSans-35" x="354.199219"/>
      </g>
     </g>
    </g>
   </g>
   <g id="matplotlib.axis_2">
    <g id="ytick_1">
     <g id="line2d_19">
      <path d="M 108 307.841667 
L 777.6 307.841667 
" clip-path="url(#pc4ed94e362)" style="fill: none; stroke-dasharray: 5.12,1.28,0.8,1.28; stroke-dashoffset: 0; stroke: #b0b0b0; stroke-width: 0.8"/>
     </g>
     <g id="line2d_20">
      <defs>
       <path id="m42f734ba28" d="M 0 0 
L -3.5 0 
" style="stroke: #a9a9a9; stroke-width: 0.8"/>
      </defs>
      <g>
       <use xlink:href="#m42f734ba28" x="108" y="307.841667" style="fill: #a9a9a9; stroke: #a9a9a9; stroke-width: 0.8"/>
      </g>
     </g>
     <g id="text_10">
      <!-- 0 -->
      <g style="fill: #a9a9a9" transform="translate(94.6375 311.640885) scale(0.1 -0.1)">
       <use xlink:href="#DejaVuSans-30"/>
      </g>
     </g>
    </g>
    <g id="ytick_2">
     <g id="line2d_21">
      <path d="M 108 274.508333 
L 777.6 274.508333 
" clip-path="url(#pc4ed94e362)" style="fill: none; stroke-dasharray: 5.12,1.28,0.8,1.28; stroke-dashoffset: 0; stroke: #b0b0b0; stroke-width: 0.8"/>
     </g>
     <g id="line2d_22">
      <g>
       <use xlink:href="#m42f734ba28" x="108" y="274.508333" style="fill: #a9a9a9; stroke: #a9a9a9; stroke-width: 0.8"/>
      </g>
     </g>
     <g id="text_11">
      <!-- 800 -->
      <g style="fill: #a9a9a9" transform="translate(81.9125 278.307552) scale(0.1 -0.1)">
       <defs>
        <path id="DejaVuSans-38" d="M 2034 2216 
Q 1584 2216 1326 1975 
Q 1069 1734 1069 1313 
Q 1069 891 1326 650 
Q 1584 409 2034 409 
Q 2484 409 2743 651 
Q 3003 894 3003 1313 
Q 3003 1734 2745 1975 
Q 2488 2216 2034 2216 
z
M 1403 2484 
Q 997 2584 770 2862 
Q 544 3141 544 3541 
Q 544 4100 942 4425 
Q 1341 4750 2034 4750 
Q 2731 4750 3128 4425 
Q 3525 4100 3525 3541 
Q 3525 3141 3298 2862 
Q 3072 2584 2669 2484 
Q 3125 2378 3379 2068 
Q 3634 1759 3634 1313 
Q 3634 634 3220 271 
Q 2806 -91 2034 -91 
Q 1263 -91 848 271 
Q 434 634 434 1313 
Q 434 1759 690 2068 
Q 947 2378 1403 2484 
z
M 1172 3481 
Q 1172 3119 1398 2916 
Q 1625 2713 2034 2713 
Q 2441 2713 2670 2916 
Q 2900 3119 2900 3481 
Q 2900 3844 2670 4047 
Q 2441 4250 2034 4250 
Q 1625 4250 1398 4047 
Q 1172 3844 1172 3481 
z
" transform="scale(0.015625)"/>
       </defs>
       <use xlink:href="#DejaVuSans-38"/>
       <use xlink:href="#DejaVuSans-30" x="63.623047"/>
       <use xlink:href="#DejaVuSans-30" x="127.246094"/>
      </g>
     </g>
    </g>
    <g id="ytick_3">
     <g id="line2d_23">
      <path d="M 108 241.175 
L 777.6 241.175 
" clip-path="url(#pc4ed94e362)" style="fill: none; stroke-dasharray: 5.12,1.28,0.8,1.28; stroke-dashoffset: 0; stroke: #b0b0b0; stroke-width: 0.8"/>
     </g>
     <g id="line2d_24">
      <g>
       <use xlink:href="#m42f734ba28" x="108" y="241.175" style="fill: #a9a9a9; stroke: #a9a9a9; stroke-width: 0.8"/>
      </g>
     </g>
     <g id="text_12">
      <!-- 1600 -->
      <g style="fill: #a9a9a9" transform="translate(75.55 244.974219) scale(0.1 -0.1)">
       <defs>
        <path id="DejaVuSans-36" d="M 2113 2584 
Q 1688 2584 1439 2293 
Q 1191 2003 1191 1497 
Q 1191 994 1439 701 
Q 1688 409 2113 409 
Q 2538 409 2786 701 
Q 3034 994 3034 1497 
Q 3034 2003 2786 2293 
Q 2538 2584 2113 2584 
z
M 3366 4563 
L 3366 3988 
Q 3128 4100 2886 4159 
Q 2644 4219 2406 4219 
Q 1781 4219 1451 3797 
Q 1122 3375 1075 2522 
Q 1259 2794 1537 2939 
Q 1816 3084 2150 3084 
Q 2853 3084 3261 2657 
Q 3669 2231 3669 1497 
Q 3669 778 3244 343 
Q 2819 -91 2113 -91 
Q 1303 -91 875 529 
Q 447 1150 447 2328 
Q 447 3434 972 4092 
Q 1497 4750 2381 4750 
Q 2619 4750 2861 4703 
Q 3103 4656 3366 4563 
z
" transform="scale(0.015625)"/>
       </defs>
       <use xlink:href="#DejaVuSans-31"/>
       <use xlink:href="#DejaVuSans-36" x="63.623047"/>
       <use xlink:href="#DejaVuSans-30" x="127.246094"/>
       <use xlink:href="#DejaVuSans-30" x="190.869141"/>
      </g>
     </g>
    </g>
    <g id="ytick_4">
     <g id="line2d_25">
      <path d="M 108 207.841667 
L 777.6 207.841667 
" clip-path="url(#pc4ed94e362)" style="fill: none; stroke-dasharray: 5.12,1.28,0.8,1.28; stroke-dashoffset: 0; stroke: #b0b0b0; stroke-width: 0.8"/>
     </g>
     <g id="line2d_26">
      <g>
       <use xlink:href="#m42f734ba28" x="108" y="207.841667" style="fill: #a9a9a9; stroke: #a9a9a9; stroke-width: 0.8"/>
      </g>
     </g>
     <g id="text_13">
      <!-- 2400 -->
      <g style="fill: #a9a9a9" transform="translate(75.55 211.640885) scale(0.1 -0.1)">
       <use xlink:href="#DejaVuSans-32"/>
       <use xlink:href="#DejaVuSans-34" x="63.623047"/>
       <use xlink:href="#DejaVuSans-30" x="127.246094"/>
       <use xlink:href="#DejaVuSans-30" x="190.869141"/>
      </g>
     </g>
    </g>
    <g id="ytick_5">
     <g id="line2d_27">
      <path d="M 108 174.508333 
L 777.6 174.508333 
" clip-path="url(#pc4ed94e362)" style="fill: none; stroke-dasharray: 5.12,1.28,0.8,1.28; stroke-dashoffset: 0; stroke: #b0b0b0; stroke-width: 0.8"/>
     </g>
     <g id="line2d_28">
      <g>
       <use xlink:href="#m42f734ba28" x="108" y="174.508333" style="fill: #a9a9a9; stroke: #a9a9a9; stroke-width: 0.8"/>
      </g>
     </g>
     <g id="text_14">
      <!-- 3200 -->
      <g style="fill: #a9a9a9" transform="translate(75.55 178.307552) scale(0.1 -0.1)">
       <use xlink:href="#DejaVuSans-33"/>
       <use xlink:href="#DejaVuSans-32" x="63.623047"/>
       <use xlink:href="#DejaVuSans-30" x="127.246094"/>
       <use xlink:href="#DejaVuSans-30" x="190.869141"/>
      </g>
     </g>
    </g>
    <g id="ytick_6">
     <g id="line2d_29">
      <path d="M 108 141.175 
L 777.6 141.175 
" clip-path="url(#pc4ed94e362)" style="fill: none; stroke-dasharray: 5.12,1.28,0.8,1.28; stroke-dashoffset: 0; stroke: #b0b0b0; stroke-width: 0.8"/>
     </g>
     <g id="line2d_30">
      <g>
       <use xlink:href="#m42f734ba28" x="108" y="141.175" style="fill: #a9a9a9; stroke: #a9a9a9; stroke-width: 0.8"/>
      </g>
     </g>
     <g id="text_15">
      <!-- 4000 -->
      <g style="fill: #a9a9a9" transform="translate(75.55 144.974219) scale(0.1 -0.1)">
       <use xlink:href="#DejaVuSans-34"/>
       <use xlink:href="#DejaVuSans-30" x="63.623047"/>
       <use xlink:href="#DejaVuSans-30" x="127.246094"/>
       <use xlink:href="#DejaVuSans-30" x="190.869141"/>
      </g>
     </g>
    </g>
    <g id="ytick_7">
     <g id="line2d_31">
      <path d="M 108 107.841667 
L 777.6 107.841667 
" clip-path="url(#pc4ed94e362)" style="fill: none; stroke-dasharray: 5.12,1.28,0.8,1.28; stroke-dashoffset: 0; stroke: #b0b0b0; stroke-width: 0.8"/>
     </g>
     <g id="line2d_32">
      <g>
       <use xlink:href="#m42f734ba28" x="108" y="107.841667" style="fill: #a9a9a9; stroke: #a9a9a9; stroke-width: 0.8"/>
      </g>
     </g>
     <g id="text_16">
      <!-- 4800 -->
      <g style="fill: #a9a9a9" transform="translate(75.55 111.640885) scale(0.1 -0.1)">
       <use xlink:href="#DejaVuSans-34"/>
       <use xlink:href="#DejaVuSans-38" x="63.623047"/>
       <use xlink:href="#DejaVuSans-30" x="127.246094"/>
       <use xlink:href="#DejaVuSans-30" x="190.869141"/>
      </g>
     </g>
    </g>
    <g id="ytick_8">
     <g id="line2d_33">
      <path d="M 108 74.508333 
L 777.6 74.508333 
" clip-path="url(#pc4ed94e362)" style="fill: none; stroke-dasharray: 5.12,1.28,0.8,1.28; stroke-dashoffset: 0; stroke: #b0b0b0; stroke-width: 0.8"/>
     </g>
     <g id="line2d_34">
      <g>
       <use xlink:href="#m42f734ba28" x="108" y="74.508333" style="fill: #a9a9a9; stroke: #a9a9a9; stroke-width: 0.8"/>
      </g>
     </g>
     <g id="text_17">
      <!-- 5600 -->
      <g style="fill: #a9a9a9" transform="translate(75.55 78.307552) scale(0.1 -0.1)">
       <use xlink:href="#DejaVuSans-35"/>
       <use xlink:href="#DejaVuSans-36" x="63.623047"/>
       <use xlink:href="#DejaVuSans-30" x="127.246094"/>
       <use xlink:href="#DejaVuSans-30" x="190.869141"/>
      </g>
     </g>
    </g>
   </g>
   <g id="line2d_35">
    <path d="M 138.436364 307.716667 
L 142.027675 307.425 
L 142.626227 307.175 
L 144.421883 306.966667 
L 148.013194 306.258333 
L 151.604505 305.966667 
L 152.203057 305.675 
L 152.801609 305.508333 
L 153.400161 304.758333 
L 153.998713 304.341667 
L 154.597265 303.05 
L 155.195817 302.966667 
L 155.794368 302.508333 
L 156.991472 301.925 
L 159.38568 300.091667 
L 160.582784 299.633333 
L 161.181335 299.216667 
L 163.575543 298.175 
L 164.174095 297.258333 
L 165.371199 296.425 
L 165.969751 296.133333 
L 171.95527 295.3 
L 172.553821 295.008333 
L 176.743685 294.675 
L 178.53934 294.216667 
L 183.926307 293.508333 
L 184.524859 293.175 
L 185.123411 293.091667 
L 185.721963 292.841667 
L 186.919067 292.633333 
L 187.517619 292.591667 
L 188.714722 292.341667 
L 189.313274 292.3 
L 191.707482 291.716667 
L 193.503138 291.55 
L 194.700241 291.425 
L 195.298793 291.258333 
L 195.897345 291.216667 
L 197.693001 290.675 
L 198.890105 290.591667 
L 200.087208 290.425 
L 201.284312 290.175 
L 201.882864 290.008333 
L 202.481416 289.216667 
L 204.277072 288.55 
L 206.072727 288.091667 
L 206.671279 287.8 
L 207.269831 287.758333 
L 210.262591 286.925 
L 211.459694 286.841667 
L 212.058246 286.758333 
L 213.853902 286.216667 
L 216.248109 285.633333 
L 216.846661 285.383333 
L 217.445213 285.3 
L 218.043765 285.008333 
L 224.029284 284.133333 
L 227.022043 283.3 
L 227.620595 282.925 
L 230.014803 282.3 
L 232.40901 281.091667 
L 234.204666 280.675 
L 234.803218 280.591667 
L 235.40177 280.3 
L 236.598874 280.091667 
L 237.795977 279.55 
L 240.788737 278.8 
L 242.584393 278.341667 
L 243.182944 278.091667 
L 243.781496 277.966667 
L 244.380048 277.716667 
L 244.9786 277.633333 
L 245.577152 277.341667 
L 246.175704 277.175 
L 247.372808 277.091667 
L 248.569912 276.675 
L 249.767015 276.591667 
L 250.365567 276.3 
L 251.562671 276.133333 
L 252.161223 275.925 
L 253.358327 275.883333 
L 255.752534 275.591667 
L 256.949638 275.008333 
L 263.533709 272.216667 
L 264.132261 271.883333 
L 264.730813 271.258333 
L 265.927916 269.508333 
L 266.526468 269.341667 
L 267.12502 269.341667 
L 268.322124 268.466667 
L 268.920676 268.3 
L 269.519228 268.008333 
L 270.11778 267.883333 
L 270.716331 267.341667 
L 271.314883 267.175 
L 273.110539 266.3 
L 274.307643 264.633333 
L 274.906195 264.258333 
L 275.504747 263.258333 
L 276.103298 262.633333 
L 276.70185 262.341667 
L 277.300402 262.175 
L 279.69461 260.8 
L 280.891714 259.841667 
L 281.490265 259.466667 
L 282.088817 258.591667 
L 282.687369 257.258333 
L 283.285921 256.383333 
L 283.884473 255.925 
L 284.483025 255.675 
L 286.877233 253.591667 
L 288.074336 252.633333 
L 288.672888 252.133333 
L 289.27144 251.341667 
L 290.468544 250.3 
L 292.862751 248.758333 
L 293.461303 248.258333 
L 294.059855 248.133333 
L 294.658407 247.883333 
L 296.454063 246.883333 
L 298.249718 245.758333 
L 300.045374 244.008333 
L 300.643926 243.633333 
L 301.242478 243.466667 
L 301.84103 243.175 
L 303.038134 242.383333 
L 303.636685 242.05 
L 304.235237 241.966667 
L 309.023652 239.091667 
L 310.819308 238.133333 
L 311.41786 237.591667 
L 313.812068 236.841667 
L 314.410619 236.425 
L 315.009171 236.3 
L 316.206275 235.883333 
L 318.001931 235.175 
L 319.797586 234.508333 
L 320.99469 234.3 
L 322.191794 233.258333 
L 323.98745 232.425 
L 325.184553 231.716667 
L 326.381657 231.383333 
L 326.980209 231.008333 
L 327.578761 230.841667 
L 329.374417 229.716667 
L 332.367176 229.008333 
L 334.162832 227.966667 
L 334.761384 227.883333 
L 335.359936 227.675 
L 336.557039 227.425 
L 338.352695 226.091667 
L 340.148351 225.675 
L 340.746903 225.466667 
L 341.345455 225.008333 
L 344.936766 223.841667 
L 345.535318 223.8 
L 346.13387 223.633333 
L 347.330973 223.133333 
L 351.520837 221.675 
L 352.71794 221.508333 
L 353.316492 221.341667 
L 353.915044 221.05 
L 354.513596 220.925 
L 356.309252 220.091667 
L 358.104907 219.216667 
L 358.703459 218.8 
L 359.302011 218.633333 
L 361.097667 217.675 
L 362.294771 217.383333 
L 363.491874 216.758333 
L 364.688978 216.425 
L 365.28753 216.341667 
L 366.484634 215.633333 
L 367.083186 215.508333 
L 368.28029 215.008333 
L 368.878842 214.883333 
L 369.477393 214.55 
L 371.871601 214.175 
L 373.068705 213.591667 
L 373.667257 213.091667 
L 374.265809 212.05 
L 376.061464 211.716667 
L 378.455672 210.466667 
L 379.054224 210.341667 
L 383.244087 208.341667 
L 384.441191 208.008333 
L 385.638294 207.758333 
L 386.835398 207.175 
L 387.43395 206.925 
L 388.032502 206.841667 
L 390.42671 205.8 
L 392.222365 204.675 
L 392.820917 204.591667 
L 393.419469 204.383333 
L 394.018021 204.341667 
L 396.412228 203.675 
L 397.01078 203.633333 
L 397.609332 203.175 
L 398.806436 202.758333 
L 400.602092 202.175 
L 401.200644 201.8 
L 401.799195 201.633333 
L 402.397747 201.216667 
L 402.996299 200.966667 
L 404.193403 200.341667 
L 406.587611 199.633333 
L 407.186163 199.341667 
L 408.981818 197.966667 
L 409.58037 197.841667 
L 410.777474 196.925 
L 411.376026 196.8 
L 411.974578 195.883333 
L 412.57313 195.633333 
L 413.171681 195.175 
L 413.770233 195.091667 
L 414.967337 194.383333 
L 415.565889 194.258333 
L 416.164441 194.008333 
L 416.762993 193.55 
L 417.361545 193.341667 
L 419.1572 192.133333 
L 421.551408 190.925 
L 422.14996 190.841667 
L 423.347064 190.3 
L 423.945615 189.966667 
L 424.544167 188.966667 
L 425.142719 188.425 
L 425.741271 188.091667 
L 426.339823 187.966667 
L 427.536927 187.216667 
L 428.135479 187.091667 
L 429.332582 186.508333 
L 431.128238 185.758333 
L 432.325342 184.925 
L 433.522446 183.675 
L 436.515205 181.508333 
L 437.712309 180.55 
L 438.310861 180.3 
L 438.909413 179.633333 
L 439.507965 179.175 
L 440.705068 178.758333 
L 441.902172 177.966667 
L 442.500724 177.675 
L 443.099276 177.508333 
L 443.697828 177.091667 
L 444.29638 177.008333 
L 446.092035 176.05 
L 447.289139 175.341667 
L 453.274658 173.216667 
L 453.87321 172.675 
L 455.668866 172.008333 
L 456.865969 171.633333 
L 457.464521 171.175 
L 459.858729 169.925 
L 460.457281 169.591667 
L 461.654385 167.258333 
L 462.851488 165.841667 
L 464.048592 165.133333 
L 465.844248 164.425 
L 466.4428 164.341667 
L 467.041352 164.008333 
L 468.837007 163.466667 
L 471.231215 162.383333 
L 471.829767 162.008333 
L 473.02687 161.591667 
L 476.618182 159.508333 
L 477.216734 158.883333 
L 478.413837 158.258333 
L 482.005149 156.383333 
L 482.603701 156.133333 
L 483.202253 155.758333 
L 483.800805 155.633333 
L 484.399356 155.175 
L 487.392116 154.216667 
L 487.990668 154.05 
L 488.58922 153.758333 
L 489.187772 153.341667 
L 490.384875 153.008333 
L 491.581979 152.55 
L 492.180531 152.091667 
L 493.377635 151.716667 
L 493.976187 151.425 
L 494.574739 151.258333 
L 495.771842 150.425 
L 496.968946 149.925 
L 498.16605 149.008333 
L 499.363154 148.591667 
L 499.961706 148.091667 
L 500.560257 148.008333 
L 501.757361 147.133333 
L 502.954465 146.55 
L 503.553017 146.3 
L 504.151569 145.716667 
L 507.74288 144.425 
L 509.538536 143.633333 
L 511.334191 143.091667 
L 512.531295 142.925 
L 513.129847 142.675 
L 513.728399 142.591667 
L 514.925503 142.091667 
L 515.524055 142.05 
L 517.918262 141.175 
L 519.713918 139.966667 
L 520.31247 139.716667 
L 521.509574 139.091667 
L 522.108126 138.883333 
L 525.699437 136.925 
L 526.297989 136.8 
L 528.093644 135.8 
L 529.8893 135.216667 
L 530.487852 134.966667 
L 531.684956 134.675 
L 534.677715 133.716667 
L 536.473371 133.425 
L 538.867578 132.675 
L 539.46613 132.425 
L 540.064682 132.341667 
L 540.663234 132.05 
L 541.860338 131.8 
L 543.057442 131.383333 
L 543.655994 131.175 
L 544.853097 131.05 
L 546.050201 130.758333 
L 547.845857 130.466667 
L 548.444409 130.258333 
L 549.641512 130.133333 
L 552.634272 129.383333 
L 553.831376 129.091667 
L 554.429928 128.758333 
L 557.422687 128.008333 
L 558.021239 127.883333 
L 559.218343 127.466667 
L 561.013998 126.841667 
L 561.61255 126.758333 
L 563.408206 126.133333 
L 564.006758 126.133333 
L 565.203862 125.716667 
L 565.802414 125.133333 
L 566.400965 124.841667 
L 567.598069 124.466667 
L 569.992277 123.55 
L 570.590829 123.425 
L 571.189381 123.05 
L 571.787932 122.925 
L 572.386484 122.591667 
L 575.379244 121.716667 
L 575.977796 121.341667 
L 576.576348 121.216667 
L 577.174899 120.716667 
L 578.970555 120.383333 
L 580.167659 119.716667 
L 580.766211 119.05 
L 581.963315 118.8 
L 586.153178 117.841667 
L 586.75173 117.675 
L 587.948833 117.633333 
L 588.547385 117.383333 
L 590.941593 116.966667 
L 591.540145 116.716667 
L 593.3358 116.466667 
L 595.730008 115.716667 
L 597.525664 115.3 
L 599.321319 114.841667 
L 601.116975 114.3 
L 604.109735 113.425 
L 605.306838 112.883333 
L 606.503942 112.466667 
L 607.102494 112.008333 
L 608.299598 111.675 
L 608.89815 111.425 
L 610.095253 111.091667 
L 612.489461 110.008333 
L 614.285117 109.883333 
L 616.679324 109.216667 
L 617.277876 108.841667 
L 618.47498 108.508333 
L 620.270636 107.591667 
L 620.869187 107.466667 
L 621.467739 107.175 
L 622.066291 107.133333 
L 628.650362 104.925 
L 631.04457 104.341667 
L 631.643121 104.175 
L 632.840225 103.633333 
L 633.438777 103.55 
L 634.635881 103.216667 
L 635.234433 102.758333 
L 635.832985 102.466667 
L 636.431537 101.758333 
L 637.030088 101.341667 
L 638.227192 100.966667 
L 638.825744 100.508333 
L 643.614159 98.55 
L 644.212711 98.383333 
L 644.811263 98.008333 
L 647.205471 97.3 
L 648.402574 96.716667 
L 649.599678 96.008333 
L 650.19823 95.883333 
L 651.395334 95.175 
L 651.993886 94.925 
L 653.19099 94.175 
L 654.986645 93.341667 
L 655.585197 92.925 
L 656.782301 92.508333 
L 657.979405 91.8 
L 658.577957 91.591667 
L 659.176508 91.175 
L 660.373612 90.758333 
L 660.972164 90.633333 
L 663.366372 89.55 
L 666.359131 88.508333 
L 666.957683 88.466667 
L 667.556235 88.3 
L 668.154787 87.925 
L 668.753339 87.841667 
L 669.351891 87.633333 
L 671.147546 87.3 
L 675.337409 85.175 
L 675.935961 85.091667 
L 677.731617 84.133333 
L 679.527273 83.466667 
L 681.322928 82.675 
L 683.717136 81.716667 
L 684.315688 81.55 
L 684.91424 81.175 
L 686.111344 81.008333 
L 686.709895 80.633333 
L 687.308447 80.591667 
L 688.505551 80.216667 
L 689.702655 79.633333 
L 690.301207 79.55 
L 690.899759 79.3 
L 691.498311 79.175 
L 693.293966 78.383333 
L 693.892518 78.258333 
L 694.49107 78.008333 
L 697.483829 77.3 
L 699.279485 76.633333 
L 701.673693 75.258333 
L 702.870796 74.8 
L 703.469348 74.425 
L 704.666452 74.175 
L 705.265004 73.841667 
L 705.863556 73.716667 
L 707.06066 73.05 
L 710.651971 71.383333 
L 711.849075 71.05 
L 714.243282 70.216667 
L 715.440386 69.633333 
L 716.63749 69.258333 
L 717.236042 69.133333 
L 718.433146 68.591667 
L 719.031698 68.383333 
L 719.630249 68.05 
L 720.228801 67.966667 
L 720.827353 67.758333 
L 722.024457 67.091667 
L 724.418665 66.008333 
L 725.615768 65.591667 
L 726.812872 64.966667 
L 727.411424 64.883333 
L 730.404183 63.591667 
L 731.002735 63.175 
L 733.396943 62.383333 
L 733.995495 62.383333 
L 735.192599 61.841667 
L 735.79115 61.383333 
L 736.389702 60.716667 
L 736.988254 60.216667 
L 737.586806 59.925 
L 738.185358 59.758333 
L 738.78391 59.383333 
L 739.382462 59.258333 
L 739.981014 58.966667 
L 740.579566 58.883333 
L 741.178117 58.466667 
L 741.776669 58.341667 
L 742.375221 58.05 
L 744.170877 56.883333 
L 745.966533 56.216667 
L 746.565084 55.883333 
L 747.163636 55.8 
L 747.163636 55.8 
" clip-path="url(#pc4ed94e362)" style="fill: none; stroke: #1f77b4; stroke-width: 1.5; stroke-linecap: square"/>
   </g>
   <g id="line2d_36">
    <path d="M 139.034916 307.8 
L 140.830571 307.716667 
L 142.626227 307.675 
L 146.217538 307.591667 
L 149.210298 307.466667 
L 151.604505 307.466667 
L 152.203057 307.3 
L 154.597265 307.216667 
L 156.39292 307.008333 
L 158.188576 306.841667 
L 161.779887 306.675 
L 162.378439 306.675 
L 162.976991 306.55 
L 165.371199 306.466667 
L 166.568302 306.383333 
L 171.356718 306.3 
L 174.349477 306.175 
L 181.5321 306.091667 
L 184.524859 305.966667 
L 188.116171 305.883333 
L 190.510378 305.8 
L 195.897345 305.716667 
L 197.693001 305.675 
L 199.488656 305.633333 
L 201.284312 305.425 
L 204.875623 305.383333 
L 206.072727 305.3 
L 210.262591 305.216667 
L 216.846661 304.841667 
L 221.036525 304.758333 
L 222.233628 304.675 
L 224.029284 304.591667 
L 227.620595 304.425 
L 230.014803 304.383333 
L 231.810459 304.216667 
L 239.591633 303.758333 
L 242.584393 303.675 
L 247.97136 303.383333 
L 249.767015 303.3 
L 255.752534 302.966667 
L 262.336605 302.883333 
L 264.730813 302.633333 
L 265.927916 302.55 
L 273.709091 301.925 
L 277.300402 301.466667 
L 279.69461 301.383333 
L 284.483025 300.758333 
L 288.074336 300.675 
L 289.869992 300.508333 
L 291.067096 300.466667 
L 292.2642 300.341667 
L 294.059855 300.258333 
L 295.256959 300.091667 
L 298.249718 299.758333 
L 300.643926 299.675 
L 301.84103 299.591667 
L 304.235237 299.508333 
L 305.432341 299.425 
L 308.425101 299.133333 
L 309.023652 298.966667 
L 312.614964 298.8 
L 315.607723 298.716667 
L 323.388898 298.258333 
L 325.184553 298.175 
L 332.965728 297.716667 
L 337.155591 297.633333 
L 337.754143 297.508333 
L 342.542558 297.425 
L 346.732422 297.216667 
L 353.316492 297.133333 
L 357.506356 296.925 
L 362.294771 296.841667 
L 367.083186 296.591667 
L 371.273049 296.508333 
L 382.645535 295.8 
L 387.43395 295.716667 
L 393.419469 295.383333 
L 394.616573 295.341667 
L 397.01078 295.091667 
L 402.996299 294.758333 
L 406.587611 294.675 
L 408.383266 294.633333 
L 410.178922 294.591667 
L 411.974578 294.425 
L 416.762993 294.341667 
L 417.960097 294.133333 
L 419.1572 294.05 
L 422.14996 293.925 
L 423.347064 293.841667 
L 424.544167 293.758333 
L 429.931134 293.675 
L 431.128238 293.55 
L 433.522446 293.508333 
L 434.120998 293.383333 
L 435.318101 293.3 
L 435.916653 293.175 
L 437.712309 293.091667 
L 447.289139 292.508333 
L 449.683347 292.425 
L 452.676106 292.3 
L 461.055833 292.216667 
L 465.245696 292.008333 
L 470.034111 291.925 
L 472.428319 291.841667 
L 474.822526 291.8 
L 476.01963 291.675 
L 478.413837 291.591667 
L 484.399356 291.258333 
L 487.990668 291.216667 
L 489.786323 291.05 
L 491.581979 291.008333 
L 495.771842 290.925 
L 498.16605 290.841667 
L 505.348673 290.758333 
L 508.341432 290.633333 
L 511.932743 290.55 
L 513.728399 290.341667 
L 517.31971 290.3 
L 519.115366 290.133333 
L 521.509574 290.05 
L 528.692196 289.966667 
L 531.684956 289.841667 
L 541.860338 289.8 
L 543.057442 289.716667 
L 544.853097 289.675 
L 552.634272 289.591667 
L 553.831376 289.508333 
L 560.415447 289.425 
L 562.809654 289.341667 
L 569.992277 289.3 
L 571.189381 289.216667 
L 580.167659 289.175 
L 581.963315 289.008333 
L 596.927112 288.925 
L 598.722767 288.883333 
L 614.883669 288.8 
L 617.277876 288.716667 
L 627.453258 288.633333 
L 628.650362 288.55 
L 631.643121 288.466667 
L 633.438777 288.3 
L 636.431537 288.216667 
L 638.825744 288.133333 
L 642.417056 288.05 
L 644.212711 288.008333 
L 646.606919 287.925 
L 648.402574 287.883333 
L 651.395334 287.8 
L 652.592438 287.716667 
L 656.183749 287.633333 
L 659.176508 287.508333 
L 660.373612 287.466667 
L 661.570716 287.383333 
L 663.366372 287.341667 
L 665.760579 287.258333 
L 668.154787 287.175 
L 675.935961 287.091667 
L 678.330169 287.008333 
L 683.118584 286.925 
L 687.308447 286.716667 
L 692.695414 286.633333 
L 693.892518 286.55 
L 704.666452 286.466667 
L 706.462108 286.425 
L 709.454867 286.383333 
L 711.849075 286.133333 
L 713.64473 286.091667 
L 717.236042 286.008333 
L 723.820113 285.633333 
L 726.21432 285.55 
L 728.608528 285.466667 
L 732.199839 285.383333 
L 733.396943 285.3 
L 735.79115 285.216667 
L 738.185358 284.966667 
L 740.579566 284.883333 
L 744.769429 284.8 
L 745.367981 284.675 
L 747.163636 284.675 
L 747.163636 284.675 
" clip-path="url(#pc4ed94e362)" style="fill: none; stroke: #ff7f0e; stroke-width: 1.5; stroke-linecap: square"/>
   </g>
   <g id="patch_3">
    <path d="M 108 320.4 
L 108 43.2 
" style="fill: none; stroke: #a9a9a9; stroke-width: 0.8; stroke-linejoin: miter; stroke-linecap: square"/>
   </g>
   <g id="patch_4">
    <path d="M 777.6 320.4 
L 777.6 43.2 
" style="fill: none"/>
   </g>
   <g id="patch_5">
    <path d="M 108 320.4 
L 777.6 320.4 
" style="fill: none; stroke: #a9a9a9; stroke-width: 0.8; stroke-linejoin: miter; stroke-linecap: square"/>
   </g>
   <g id="patch_6">
    <path d="M 108 43.2 
L 777.6 43.2 
" style="fill: none"/>
   </g>
   <g id="text_18">
    <!-- get_subscribe history -->
    <g style="fill: #a9a9a9" transform="translate(378.6075 37.2) scale(0.12 -0.12)">
     <defs>
      <path id="DejaVuSans-67" d="M 2906 1791 
Q 2906 2416 2648 2759 
Q 2391 3103 1925 3103 
Q 1463 3103 1205 2759 
Q 947 2416 947 1791 
Q 947 1169 1205 825 
Q 1463 481 1925 481 
Q 2391 481 2648 825 
Q 2906 1169 2906 1791 
z
M 3481 434 
Q 3481 -459 3084 -895 
Q 2688 -1331 1869 -1331 
Q 1566 -1331 1297 -1286 
Q 1028 -1241 775 -1147 
L 775 -588 
Q 1028 -725 1275 -790 
Q 1522 -856 1778 -856 
Q 2344 -856 2625 -561 
Q 2906 -266 2906 331 
L 2906 616 
Q 2728 306 2450 153 
Q 2172 0 1784 0 
Q 1141 0 747 490 
Q 353 981 353 1791 
Q 353 2603 747 3093 
Q 1141 3584 1784 3584 
Q 2172 3584 2450 3431 
Q 2728 3278 2906 2969 
L 2906 3500 
L 3481 3500 
L 3481 434 
z
" transform="scale(0.015625)"/>
      <path id="DejaVuSans-65" d="M 3597 1894 
L 3597 1613 
L 953 1613 
Q 991 1019 1311 708 
Q 1631 397 2203 397 
Q 2534 397 2845 478 
Q 3156 559 3463 722 
L 3463 178 
Q 3153 47 2828 -22 
Q 2503 -91 2169 -91 
Q 1331 -91 842 396 
Q 353 884 353 1716 
Q 353 2575 817 3079 
Q 1281 3584 2069 3584 
Q 2775 3584 3186 3129 
Q 3597 2675 3597 1894 
z
M 3022 2063 
Q 3016 2534 2758 2815 
Q 2500 3097 2075 3097 
Q 1594 3097 1305 2825 
Q 1016 2553 972 2059 
L 3022 2063 
z
" transform="scale(0.015625)"/>
      <path id="DejaVuSans-74" d="M 1172 4494 
L 1172 3500 
L 2356 3500 
L 2356 3053 
L 1172 3053 
L 1172 1153 
Q 1172 725 1289 603 
Q 1406 481 1766 481 
L 2356 481 
L 2356 0 
L 1766 0 
Q 1100 0 847 248 
Q 594 497 594 1153 
L 594 3053 
L 172 3053 
L 172 3500 
L 594 3500 
L 594 4494 
L 1172 4494 
z
" transform="scale(0.015625)"/>
      <path id="DejaVuSans-5f" d="M 3263 -1063 
L 3263 -1509 
L -63 -1509 
L -63 -1063 
L 3263 -1063 
z
" transform="scale(0.015625)"/>
      <path id="DejaVuSans-73" d="M 2834 3397 
L 2834 2853 
Q 2591 2978 2328 3040 
Q 2066 3103 1784 3103 
Q 1356 3103 1142 2972 
Q 928 2841 928 2578 
Q 928 2378 1081 2264 
Q 1234 2150 1697 2047 
L 1894 2003 
Q 2506 1872 2764 1633 
Q 3022 1394 3022 966 
Q 3022 478 2636 193 
Q 2250 -91 1575 -91 
Q 1294 -91 989 -36 
Q 684 19 347 128 
L 347 722 
Q 666 556 975 473 
Q 1284 391 1588 391 
Q 1994 391 2212 530 
Q 2431 669 2431 922 
Q 2431 1156 2273 1281 
Q 2116 1406 1581 1522 
L 1381 1569 
Q 847 1681 609 1914 
Q 372 2147 372 2553 
Q 372 3047 722 3315 
Q 1072 3584 1716 3584 
Q 2034 3584 2315 3537 
Q 2597 3491 2834 3397 
z
" transform="scale(0.015625)"/>
      <path id="DejaVuSans-75" d="M 544 1381 
L 544 3500 
L 1119 3500 
L 1119 1403 
Q 1119 906 1312 657 
Q 1506 409 1894 409 
Q 2359 409 2629 706 
Q 2900 1003 2900 1516 
L 2900 3500 
L 3475 3500 
L 3475 0 
L 2900 0 
L 2900 538 
Q 2691 219 2414 64 
Q 2138 -91 1772 -91 
Q 1169 -91 856 284 
Q 544 659 544 1381 
z
M 1991 3584 
L 1991 3584 
z
" transform="scale(0.015625)"/>
      <path id="DejaVuSans-62" d="M 3116 1747 
Q 3116 2381 2855 2742 
Q 2594 3103 2138 3103 
Q 1681 3103 1420 2742 
Q 1159 2381 1159 1747 
Q 1159 1113 1420 752 
Q 1681 391 2138 391 
Q 2594 391 2855 752 
Q 3116 1113 3116 1747 
z
M 1159 2969 
Q 1341 3281 1617 3432 
Q 1894 3584 2278 3584 
Q 2916 3584 3314 3078 
Q 3713 2572 3713 1747 
Q 3713 922 3314 415 
Q 2916 -91 2278 -91 
Q 1894 -91 1617 61 
Q 1341 213 1159 525 
L 1159 0 
L 581 0 
L 581 4863 
L 1159 4863 
L 1159 2969 
z
" transform="scale(0.015625)"/>
      <path id="DejaVuSans-63" d="M 3122 3366 
L 3122 2828 
Q 2878 2963 2633 3030 
Q 2388 3097 2138 3097 
Q 1578 3097 1268 2742 
Q 959 2388 959 1747 
Q 959 1106 1268 751 
Q 1578 397 2138 397 
Q 2388 397 2633 464 
Q 2878 531 3122 666 
L 3122 134 
Q 2881 22 2623 -34 
Q 2366 -91 2075 -91 
Q 1284 -91 818 406 
Q 353 903 353 1747 
Q 353 2603 823 3093 
Q 1294 3584 2113 3584 
Q 2378 3584 2631 3529 
Q 2884 3475 3122 3366 
z
" transform="scale(0.015625)"/>
      <path id="DejaVuSans-72" d="M 2631 2963 
Q 2534 3019 2420 3045 
Q 2306 3072 2169 3072 
Q 1681 3072 1420 2755 
Q 1159 2438 1159 1844 
L 1159 0 
L 581 0 
L 581 3500 
L 1159 3500 
L 1159 2956 
Q 1341 3275 1631 3429 
Q 1922 3584 2338 3584 
Q 2397 3584 2469 3576 
Q 2541 3569 2628 3553 
L 2631 2963 
z
" transform="scale(0.015625)"/>
      <path id="DejaVuSans-69" d="M 603 3500 
L 1178 3500 
L 1178 0 
L 603 0 
L 603 3500 
z
M 603 4863 
L 1178 4863 
L 1178 4134 
L 603 4134 
L 603 4863 
z
" transform="scale(0.015625)"/>
      <path id="DejaVuSans-20" transform="scale(0.015625)"/>
      <path id="DejaVuSans-68" d="M 3513 2113 
L 3513 0 
L 2938 0 
L 2938 2094 
Q 2938 2591 2744 2837 
Q 2550 3084 2163 3084 
Q 1697 3084 1428 2787 
Q 1159 2491 1159 1978 
L 1159 0 
L 581 0 
L 581 4863 
L 1159 4863 
L 1159 2956 
Q 1366 3272 1645 3428 
Q 1925 3584 2291 3584 
Q 2894 3584 3203 3211 
Q 3513 2838 3513 2113 
z
" transform="scale(0.015625)"/>
      <path id="DejaVuSans-6f" d="M 1959 3097 
Q 1497 3097 1228 2736 
Q 959 2375 959 1747 
Q 959 1119 1226 758 
Q 1494 397 1959 397 
Q 2419 397 2687 759 
Q 2956 1122 2956 1747 
Q 2956 2369 2687 2733 
Q 2419 3097 1959 3097 
z
M 1959 3584 
Q 2709 3584 3137 3096 
Q 3566 2609 3566 1747 
Q 3566 888 3137 398 
Q 2709 -91 1959 -91 
Q 1206 -91 779 398 
Q 353 888 353 1747 
Q 353 2609 779 3096 
Q 1206 3584 1959 3584 
z
" transform="scale(0.015625)"/>
      <path id="DejaVuSans-79" d="M 2059 -325 
Q 1816 -950 1584 -1140 
Q 1353 -1331 966 -1331 
L 506 -1331 
L 506 -850 
L 844 -850 
Q 1081 -850 1212 -737 
Q 1344 -625 1503 -206 
L 1606 56 
L 191 3500 
L 800 3500 
L 1894 763 
L 2988 3500 
L 3597 3500 
L 2059 -325 
z
" transform="scale(0.015625)"/>
     </defs>
     <use xlink:href="#DejaVuSans-67"/>
     <use xlink:href="#DejaVuSans-65" x="63.476562"/>
     <use xlink:href="#DejaVuSans-74" x="125"/>
     <use xlink:href="#DejaVuSans-5f" x="164.208984"/>
     <use xlink:href="#DejaVuSans-73" x="214.208984"/>
     <use xlink:href="#DejaVuSans-75" x="266.308594"/>
     <use xlink:href="#DejaVuSans-62" x="329.6875"/>
     <use xlink:href="#DejaVuSans-73" x="393.164062"/>
     <use xlink:href="#DejaVuSans-63" x="445.263672"/>
     <use xlink:href="#DejaVuSans-72" x="500.244141"/>
     <use xlink:href="#DejaVuSans-69" x="541.357422"/>
     <use xlink:href="#DejaVuSans-62" x="569.140625"/>
     <use xlink:href="#DejaVuSans-65" x="632.617188"/>
     <use xlink:href="#DejaVuSans-20" x="694.140625"/>
     <use xlink:href="#DejaVuSans-68" x="725.927734"/>
     <use xlink:href="#DejaVuSans-69" x="789.306641"/>
     <use xlink:href="#DejaVuSans-73" x="817.089844"/>
     <use xlink:href="#DejaVuSans-74" x="869.189453"/>
     <use xlink:href="#DejaVuSans-6f" x="908.398438"/>
     <use xlink:href="#DejaVuSans-72" x="969.580078"/>
     <use xlink:href="#DejaVuSans-79" x="1010.693359"/>
    </g>
   </g>
   <g id="legend_1">
    <g id="line2d_37">
     <path d="M 815.08 328.498438 
L 825.08 328.498438 
L 835.08 328.498438 
" style="fill: none; stroke: #1f77b4; stroke-width: 1.5; stroke-linecap: square"/>
    </g>
    <g id="text_19">
     <!-- star -->
     <g style="fill: #a9a9a9" transform="translate(843.08 331.998438) scale(0.1 -0.1)">
      <defs>
       <path id="DejaVuSans-61" d="M 2194 1759 
Q 1497 1759 1228 1600 
Q 959 1441 959 1056 
Q 959 750 1161 570 
Q 1363 391 1709 391 
Q 2188 391 2477 730 
Q 2766 1069 2766 1631 
L 2766 1759 
L 2194 1759 
z
M 3341 1997 
L 3341 0 
L 2766 0 
L 2766 531 
Q 2569 213 2275 61 
Q 1981 -91 1556 -91 
Q 1019 -91 701 211 
Q 384 513 384 1019 
Q 384 1609 779 1909 
Q 1175 2209 1959 2209 
L 2766 2209 
L 2766 2266 
Q 2766 2663 2505 2880 
Q 2244 3097 1772 3097 
Q 1472 3097 1187 3025 
Q 903 2953 641 2809 
L 641 3341 
Q 956 3463 1253 3523 
Q 1550 3584 1831 3584 
Q 2591 3584 2966 3190 
Q 3341 2797 3341 1997 
z
" transform="scale(0.015625)"/>
      </defs>
      <use xlink:href="#DejaVuSans-73"/>
      <use xlink:href="#DejaVuSans-74" x="52.099609"/>
      <use xlink:href="#DejaVuSans-61" x="91.308594"/>
      <use xlink:href="#DejaVuSans-72" x="152.587891"/>
     </g>
    </g>
    <g id="line2d_38">
     <path d="M 815.08 343.176562 
L 825.08 343.176562 
L 835.08 343.176562 
" style="fill: none; stroke: #ff7f0e; stroke-width: 1.5; stroke-linecap: square"/>
    </g>
    <g id="text_20">
     <!-- fork -->
     <g style="fill: #a9a9a9" transform="translate(843.08 346.676562) scale(0.1 -0.1)">
      <defs>
       <path id="DejaVuSans-66" d="M 2375 4863 
L 2375 4384 
L 1825 4384 
Q 1516 4384 1395 4259 
Q 1275 4134 1275 3809 
L 1275 3500 
L 2222 3500 
L 2222 3053 
L 1275 3053 
L 1275 0 
L 697 0 
L 697 3053 
L 147 3053 
L 147 3500 
L 697 3500 
L 697 3744 
Q 697 4328 969 4595 
Q 1241 4863 1831 4863 
L 2375 4863 
z
" transform="scale(0.015625)"/>
       <path id="DejaVuSans-6b" d="M 581 4863 
L 1159 4863 
L 1159 1991 
L 2875 3500 
L 3609 3500 
L 1753 1863 
L 3688 0 
L 2938 0 
L 1159 1709 
L 1159 0 
L 581 0 
L 581 4863 
z
" transform="scale(0.015625)"/>
      </defs>
      <use xlink:href="#DejaVuSans-66"/>
      <use xlink:href="#DejaVuSans-6f" x="35.205078"/>
      <use xlink:href="#DejaVuSans-72" x="96.386719"/>
      <use xlink:href="#DejaVuSans-6b" x="137.5"/>
     </g>
    </g>
   </g>
  </g>
 </g>
 <defs>
  <clipPath id="pc4ed94e362">
   <rect x="108" y="43.2" width="669.6" height="277.2"/>
  </clipPath>
 </defs>
</svg>
